<?xml version="1.0" encoding="UTF-8"?>
<svg id="Layer_1" xmlns="http://www.w3.org/2000/svg" viewBox="0 0 249.4 30">
    <defs>
        <style>.cls-1{fill:#294977;}.cls-2{fill:#385ea9;}</style>
    </defs>
    <g>
        <path d="M50.49,7.32v14.87h-2.98V7.32h2.98Z"/>
        <path d="M55.88,7.32v14.87h-2.98V7.32h2.98Z"/>
        <path d="M61.27,7.32v14.87h-2.98V7.32h2.98Z"/>
        <path d="M72.86,7.32v2.41h-6.2v3.81h4.75v2.37h-4.75v6.29h-2.98V7.32h9.18Z"/>
        <path d="M79.24,10.8c.66-1.16,1.56-2.06,2.71-2.71,1.14-.65,2.43-.97,3.85-.97,1.66,0,3.12,.43,4.37,1.28,1.25,.85,2.12,2.03,2.62,3.54h-3.43c-.34-.71-.82-1.24-1.44-1.6-.62-.35-1.33-.53-2.14-.53-.87,0-1.64,.2-2.31,.61-.67,.4-1.2,.98-1.58,1.71-.38,.74-.56,1.61-.56,2.6s.19,1.84,.56,2.59c.38,.75,.9,1.32,1.58,1.73,.67,.4,1.45,.61,2.31,.61,.81,0,1.52-.18,2.14-.54,.62-.36,1.1-.9,1.44-1.61h3.43c-.5,1.52-1.37,2.7-2.61,3.55-1.24,.85-2.7,1.27-4.38,1.27-1.42,0-2.7-.32-3.85-.97-1.14-.65-2.05-1.54-2.71-2.69-.66-1.15-.99-2.46-.99-3.92s.33-2.77,.99-3.93Z"/>
        <path d="M97.79,6.42v15.77h-2.98V6.42h2.98Z"/>
        <path d="M102.37,21.62c-.91-.5-1.62-1.22-2.14-2.14-.52-.92-.78-1.99-.78-3.2s.27-2.27,.8-3.2,1.26-1.64,2.18-2.14,1.95-.76,3.09-.76,2.17,.25,3.09,.76c.92,.5,1.65,1.22,2.18,2.14s.8,1.99,.8,3.2-.27,2.27-.82,3.2c-.55,.92-1.29,1.64-2.22,2.14s-1.97,.76-3.12,.76-2.16-.25-3.07-.76Zm4.59-2.24c.48-.26,.86-.66,1.14-1.18,.28-.53,.43-1.16,.43-1.92,0-1.12-.29-1.98-.88-2.59-.59-.6-1.31-.91-2.16-.91s-1.57,.3-2.14,.91c-.58,.6-.86,1.47-.86,2.59s.28,1.99,.84,2.59c.56,.6,1.27,.91,2.12,.91,.54,0,1.05-.13,1.52-.39Z"/>
        <path d="M124.4,10.39v11.8h-3v-1.49c-.38,.51-.88,.91-1.5,1.2s-1.29,.44-2.01,.44c-.92,0-1.74-.19-2.45-.59-.71-.39-1.27-.97-1.67-1.73-.4-.76-.61-1.67-.61-2.72v-6.92h2.98v6.5c0,.94,.23,1.66,.7,2.16,.47,.5,1.11,.76,1.92,.76s1.47-.25,1.94-.76c.47-.5,.7-1.23,.7-2.16v-6.5h3Z"/>
        <path d="M126.76,13.07c.48-.92,1.13-1.63,1.95-2.13s1.74-.75,2.75-.75c.77,0,1.5,.17,2.19,.5,.7,.33,1.25,.78,1.66,1.33V6.42h3.03v15.77h-3.03v-1.75c-.37,.58-.89,1.05-1.56,1.41-.67,.35-1.44,.53-2.32,.53-.99,0-1.9-.26-2.73-.77s-1.47-1.23-1.95-2.16c-.48-.93-.71-2-.71-3.21s.24-2.25,.71-3.17Zm8.15,1.35c-.28-.52-.67-.92-1.15-1.19-.48-.28-1-.42-1.56-.42s-1.06,.14-1.53,.4c-.47,.27-.85,.66-1.14,1.18-.29,.52-.44,1.13-.44,1.84s.15,1.33,.44,1.86,.67,.94,1.15,1.23c.48,.28,.98,.43,1.52,.43s1.07-.14,1.56-.42c.48-.28,.87-.67,1.15-1.19,.28-.52,.43-1.14,.43-1.86s-.14-1.35-.43-1.86Z"/>
        <path d="M147.59,21.81c-.83-.35-1.49-.87-1.97-1.53-.48-.67-.73-1.46-.75-2.37h3.2c.04,.61,.26,1.09,.65,1.45s.93,.53,1.61,.53,1.24-.17,1.64-.5c.4-.33,.6-.77,.6-1.31,0-.44-.14-.8-.41-1.09-.27-.28-.61-.51-1.01-.67s-.96-.34-1.67-.54c-.97-.28-1.75-.56-2.35-.84-.6-.28-1.12-.7-1.56-1.26-.43-.56-.65-1.31-.65-2.25,0-.88,.22-1.65,.66-2.3s1.06-1.15,1.85-1.5c.79-.35,1.7-.52,2.73-.52,1.53,0,2.78,.37,3.74,1.12,.96,.75,1.49,1.79,1.59,3.12h-3.28c-.03-.51-.25-.93-.65-1.27-.4-.33-.94-.5-1.61-.5-.58,0-1.05,.15-1.4,.45-.35,.3-.52,.73-.52,1.3,0,.4,.13,.73,.39,.99,.26,.26,.59,.48,.98,.64,.39,.16,.94,.35,1.65,.56,.97,.28,1.75,.57,2.37,.85,.61,.28,1.14,.71,1.58,1.28,.44,.57,.66,1.31,.66,2.24,0,.8-.21,1.53-.62,2.22-.41,.68-1.02,1.23-1.81,1.63s-1.74,.61-2.83,.61c-1.04,0-1.97-.18-2.8-.53Z"/>
        <path d="M168.59,17.18h-8.63c.07,.85,.37,1.52,.9,2,.53,.48,1.17,.72,1.94,.72,1.11,0,1.9-.48,2.36-1.43h3.22c-.34,1.14-.99,2.07-1.96,2.8s-2.15,1.1-3.56,1.1c-1.14,0-2.16-.25-3.06-.76-.9-.5-1.61-1.22-2.11-2.14-.5-.92-.76-1.99-.76-3.2s.25-2.29,.75-3.22c.5-.92,1.19-1.63,2.09-2.13,.9-.5,1.92-.75,3.09-.75s2.13,.24,3.02,.72c.89,.48,1.58,1.17,2.07,2.06,.49,.89,.74,1.91,.74,3.06,0,.43-.03,.81-.09,1.15Zm-3-2c-.01-.77-.29-1.38-.83-1.84-.54-.46-1.2-.69-1.98-.69-.74,0-1.36,.22-1.86,.67-.5,.45-.81,1.07-.93,1.86h5.6Z"/>
        <path d="M174.8,10.75c.62-.35,1.32-.53,2.12-.53v3.13h-.79c-.94,0-1.64,.22-2.12,.66-.48,.44-.71,1.21-.71,2.3v5.88h-2.98V10.39h2.98v1.83c.38-.62,.88-1.11,1.5-1.47Z"/>
        <path d="M183.31,19.44l2.98-9.06h3.17l-4.37,11.8h-3.62l-4.35-11.8h3.2l2.98,9.06Z"/>
        <path d="M190.82,8.48c-.35-.33-.52-.75-.52-1.25s.17-.91,.52-1.25c.35-.33,.78-.5,1.31-.5s.96,.17,1.31,.5c.35,.33,.52,.75,.52,1.25s-.17,.91-.52,1.25c-.35,.33-.79,.5-1.31,.5s-.96-.17-1.31-.5Zm2.78,1.91v11.8h-2.98V10.39h2.98Z"/>
        <path d="M195.99,13.08c.5-.92,1.19-1.63,2.07-2.13s1.89-.76,3.03-.76c1.46,0,2.67,.37,3.63,1.1s1.6,1.76,1.93,3.08h-3.22c-.17-.51-.46-.91-.86-1.2-.4-.29-.91-.44-1.5-.44-.85,0-1.53,.31-2.02,.93-.5,.62-.75,1.5-.75,2.63s.25,1.99,.75,2.61c.5,.62,1.17,.93,2.02,.93,1.21,0,2-.54,2.37-1.62h3.22c-.33,1.28-.97,2.29-1.94,3.05-.97,.75-2.17,1.13-3.62,1.13-1.14,0-2.14-.25-3.03-.76s-1.57-1.21-2.07-2.13c-.5-.92-.75-1.98-.75-3.21s.25-2.29,.75-3.21Z"/>
        <path d="M219.19,17.18h-8.63c.07,.85,.37,1.52,.89,2,.53,.48,1.17,.72,1.94,.72,1.11,0,1.9-.48,2.36-1.43h3.22c-.34,1.14-.99,2.07-1.96,2.8-.97,.73-2.15,1.1-3.56,1.1-1.14,0-2.16-.25-3.06-.76-.9-.5-1.6-1.22-2.11-2.14-.5-.92-.76-1.99-.76-3.2s.25-2.29,.75-3.22c.5-.92,1.19-1.63,2.09-2.13,.89-.5,1.92-.75,3.09-.75s2.13,.24,3.01,.72c.89,.48,1.58,1.17,2.07,2.06,.49,.89,.73,1.91,.73,3.06,0,.43-.03,.81-.08,1.15Zm-3-2c-.01-.77-.29-1.38-.83-1.84s-1.2-.69-1.98-.69c-.74,0-1.36,.22-1.86,.67-.5,.45-.81,1.07-.93,1.86h5.6Z"/>
        <path d="M222.83,21.86c-.77-.35-1.37-.82-1.82-1.42-.45-.6-.69-1.26-.74-1.98h3c.06,.45,.28,.83,.67,1.13,.39,.3,.88,.45,1.46,.45s1.01-.11,1.33-.34c.32-.23,.48-.52,.48-.87,0-.38-.2-.67-.59-.86-.39-.19-1.01-.4-1.86-.63-.88-.21-1.6-.43-2.16-.66-.56-.23-1.04-.58-1.45-1.04-.4-.47-.61-1.1-.61-1.9,0-.65,.19-1.25,.56-1.79,.38-.54,.92-.97,1.62-1.28s1.53-.47,2.48-.47c1.41,0,2.53,.35,3.37,1.05,.84,.7,1.3,1.65,1.38,2.84h-2.86c-.04-.47-.24-.84-.59-1.12-.35-.28-.81-.42-1.4-.42-.54,0-.96,.1-1.25,.3-.29,.2-.44,.48-.44,.83,0,.4,.2,.7,.6,.91,.4,.21,1.01,.42,1.85,.63,.85,.21,1.55,.43,2.11,.66,.55,.23,1.03,.58,1.44,1.05,.41,.48,.61,1.1,.63,1.89,0,.68-.19,1.29-.56,1.83-.38,.54-.92,.96-1.62,1.27-.7,.31-1.52,.46-2.46,.46s-1.83-.17-2.6-.52Z"/>
    </g>
    <g>
        <rect class="cls-2" x="7.18" y="5.99" width="17.04" height="17.41"
              transform="translate(-5.8 15.41) rotate(-45)"/>
        <rect class="cls-2" x="18.25" y="6.11" width="17.04" height="17.41"
              transform="translate(-2.64 23.27) rotate(-45)"/>
        <rect class="cls-1" x="16.57" y="9.99" width="9.33" height="9.54"
              transform="translate(-4.22 19.34) rotate(-45)"/>
    </g>
</svg>
